<svg xmlns="http://www.w3.org/2000/svg" viewBox="0 0 1171 924.98"><defs><style>.cls-1{fill:#9ee900;}.cls-2{fill:#603813;}.cls-3{fill:#009245;}.cls-4{fill:#5b9000;}.cls-5{fill:#9e9000;}.cls-6{fill:#8cc63f;}.cls-7{fill:#dede6a;}.cls-8{fill:#e2a06f;}.cls-9{fill:#f3b980;}.cls-10{fill:#fff;}.cls-11{fill:#42210b;}.cls-12{fill:#302a2a;}.cls-13{fill:#4d4d4d;}.cls-14{fill:gray;}.cls-15{fill:#a9f0b6;}.cls-16{fill:#136771;}</style></defs><title>ariel_bosque</title><g id="Capa_6" data-name="Capa 6"><path class="cls-1" d="M228.72,380.89c20.15-108,99.28-63.72,99.28-63.72,57.55-54.87,86.32,26.55,86.32,26.55,61.87,26.55,30.22,93.81,30.22,93.81,36,67.26-14.39,102.66-14.39,102.66,18.7,106.2-76.26,83.19-76.26,83.19-71.93,63.73-82-38.94-82-38.94-77.7,7.08-51.8-77.88-51.8-77.88C168.3,421.6,228.72,380.89,228.72,380.89Z" transform="translate(-21 -179.88)"/><polygon class="cls-2" points="283.66 660.75 345.29 660.75 327.08 419.64 391.51 319.33 322.88 379.17 317.27 319.33 338.28 278.85 314.47 292.93 307.47 215.49 303.27 303.49 251.44 247.17 296.26 352.77 283.66 660.75"/><path class="cls-3" d="M944.39,609.66c2.51-21.28-24.76-14.26-24.76-14.26-19.21-26-32.84-7.66-23.87,9.79S941.88,631,944.39,609.66Z" transform="translate(-21 -179.88)"/></g><g id="Capa_2" data-name="Capa 2"><path class="cls-4" d="M541.38,274.65c52.9-83.13,100.13,2.84,100.13,2.84,60.46,17,38.74,79.35,38.74,79.35,32.12,63.3-19.84,91.64-19.84,91.64,13.22,38.73-23.62,41.57-23.62,41.57-34,69.9-76.52,8.5-76.52,8.5-72.74,6.61-57.63-70.85-57.63-70.85-45.34-54.8,8.5-89.75,8.5-89.75C480.91,277.49,541.38,274.65,541.38,274.65Z" transform="translate(-21 -179.88)"/><path class="cls-4" d="M798.91,270.19c51-72.63,96.94,3.35,96.94,3.35,54.85,10,34.44,51.39,34.44,51.39,43.37,49.16-5.1,68.16-5.1,68.16,19.13,49.16-38.27,58.1-38.27,58.1-53.57,41.33-88-8.94-88-8.94-65,5.58-40.81-50.28-40.81-50.28-42.1-49.16,10.2-67,10.2-67C744.07,276.89,798.91,270.19,798.91,270.19Z" transform="translate(-21 -179.88)"/><path class="cls-1" d="M651.23,368.24c14-66.66,69.07-39.34,69.07-39.34,40.05-33.88,60.07,16.39,60.07,16.39,43,16.39,21,57.92,21,57.92,25,41.53-10,63.39-10,63.39,13,65.58-53.06,51.37-53.06,51.37-50.05,39.34-57.06-24.05-57.06-24.05-54,4.38-36-48.08-36-48.08C609.19,393.38,651.23,368.24,651.23,368.24Z" transform="translate(-21 -179.88)"/><polygon class="cls-2" points="679.05 436.76 685.06 294.68 664.51 261.41 690.07 277.2 693.1 205.97 700.08 270.64 718.1 244.41 703.08 291.4 715.09 436.76 679.05 436.76"/><path class="cls-5" d="M325.77,319.05c-79.52,103.63,4.91,159.6,4.91,159.6,14,109,59.64,67.23,59.64,67.23,57.54,85.09,76.67-12,76.67-12,56.39,36.8,63.74-77.81,63.74-77.81,44.09-107.86-1.85-140.78-1.85-140.78,3.2-129.77-63.3-103-63.3-103-65.18-77.46-83,10.8-83,10.8C291.76,204.75,325.77,319.05,325.77,319.05Z" transform="translate(-21 -179.88)"/><polygon class="cls-2" points="549.66 454.71 591.23 454.71 578.95 325.29 622.4 271.44 576.11 303.56 572.33 271.44 586.5 249.71 570.44 257.27 565.72 215.7 562.89 262.94 527.93 232.71 558.16 289.39 549.66 454.71"/><path class="cls-4" d="M280.16,251.22C188.36,112.05,106.4,256,106.4,256,1.48,284.43,39.19,388.81,39.19,388.81c-55.74,106,34.42,153.4,34.42,153.4-23,64.84,41,69.58,41,69.58,59,117,132.78,14.24,132.78,14.24,126.23,11.07,100-118.61,100-118.61,78.68-91.73-14.75-150.24-14.75-150.24C385.07,256,280.16,251.22,280.16,251.22Z" transform="translate(-21 -179.88)"/><polygon class="cls-2" points="196.87 673.88 124.74 673.88 146.05 457.22 70.64 367.08 150.97 420.85 157.52 367.08 132.94 330.7 160.8 343.36 169 273.77 173.92 352.85 234.57 302.24 182.11 397.13 196.87 673.88"/><polygon class="cls-2" points="814.11 440.54 849.86 440.54 831.91 261.99 862.14 221.37 830.97 241.21 820.58 173.19 814.11 440.54"/><polygon class="cls-2" points="384.93 497.22 392.36 306.46 366.93 261.79 398.56 282.99 402.31 187.36 410.95 274.18 433.25 238.97 414.66 302.06 429.53 497.22 384.93 497.22"/></g><g id="Capa_7" data-name="Capa 7"><path class="cls-6" d="M53.54,1002.64c-22.8-12.49-32.09-35.9-21.39-56.13,27.68-52.35,149.47-90.62,346.11-135.31,59.46-13.51,5.72-91.59,10.34-119.57,2.9-19.52,33.48-39.59,53.77-48a71.76,71.76,0,0,1,7.35-2.59c110-32.44,341.94-38.15,634.66-39-6.05,1-1.44,0,0,0-40,7.3-80,12.16-121.53,19.46-72.31,10.95-277.62,38-288,68.67-12.43,36.62,140.32,95.52,169.55,105.25C879.78,806.33,904,815.64,949,829.44c166,50.91,169.61,136.31,125.59,161.48C994.65,1036.62,336.25,1157.49,53.54,1002.64Z" transform="translate(-21 -179.88)"/><path class="cls-7" d="M126,1027.72c-20-12-37.62-56.58-28.24-76.06,24.27-50.39,137-72.16,303.44-130.25,10.39-3.62,48.83-15.51,40.46-48-6.57-25.5-25.63-48-21.58-74.93,2.55-18.79,19.53-30.28,37.32-38.4a59.54,59.54,0,0,1,6.44-2.49c96.48-31.23,304-43.57,560.57-44.39-5.31.91-331.59,18.68-365.6,61.25-48.23,60.37,125.41,122.37,151,131.74,31,10.53,52.25,19.49,91.71,32.77,145.51,49,139.22,124,110.1,155.44C933.69,1078.51,373.82,1176.78,126,1027.72Z" transform="translate(-21 -179.88)"/><path class="cls-5" d="M715.55,479.06c16.85-69.67,83.05-41.12,83.05-41.12,48.14-35.4,72.21,17.13,72.21,17.13,51.76,17.14,25.28,60.54,25.28,60.54,30.09,43.4-12,66.24-12,66.24,15.65,68.53-63.79,53.68-63.79,53.68-60.18,41.12-68.6-25.12-68.6-25.12-65,4.56-43.33-50.26-43.33-50.26C665,505.33,715.55,479.06,715.55,479.06Z" transform="translate(-21 -179.88)"/><path class="cls-1" d="M908.57,370.69c-100.71,142.67,6,219.61,6,219.61,17.54,150,75.38,92.47,75.38,92.47,72.7,117,97-16.59,97-16.59,71.29,50.58,80.72-107.15,80.72-107.15,55.9-148.48-2.19-193.74-2.19-193.74,4.2-178.59-80-141.65-80-141.65-82.38-106.54-105,14.94-105,14.94C865.67,213.41,908.57,370.69,908.57,370.69Z" transform="translate(-21 -179.88)"/><polygon class="cls-2" points="971.74 702.56 981.99 406.83 946.9 337.56 990.54 370.43 995.71 222.18 1007.63 356.78 1038.39 302.19 1012.75 400 1033.27 702.56 971.74 702.56"/><polygon class="cls-2" points="758.07 612.67 809.63 612.67 794.4 462.69 848.3 400.29 790.88 437.51 786.19 400.29 803.77 375.11 783.85 383.86 777.99 335.69 774.48 390.43 731.12 355.4 768.62 421.09 758.07 612.67"/></g><g id="Capa_3" data-name="Capa 3"><path class="cls-6" d="M61,924.09c25.5-102.75,52.69-40.18,52.69-40.18,11-138.28,58.56-85.83,58.56-85.83,51.49-56.72,70.21,8.19,70.21,8.19,43.22-44.14,47.31,19.82,47.31,19.82,33.92,20.81-90.46,50.07-90.46,50.07Z" transform="translate(-21 -179.88)"/><path class="cls-6" d="M406.27,677.58c-14.63-42.86,14.64-42.86,14.64-42.86,34.49-48.08,55.39-13.59,55.39-13.59,16.73-25.08,36.58-11.49,36.58-11.49C541.1,594,552.6,617,552.6,617L539,630.54l-46,4.18-55.4,18.82Z" transform="translate(-21 -179.88)"/><path class="cls-6" d="M595.46,618C612.18,581.42,631,594,631,594c36.58-16.72,43.9,8.36,43.9,8.36,16.72-26.13,26.13,0,26.13,0l5.23,10.45Z" transform="translate(-21 -179.88)"/><path class="cls-6" d="M729.24,758.06c31.36-36.59,43.9,11.49,43.9,11.49,19.86-26.13,37.63,0,37.63,0,32.4-20.9,54.35,17.77,54.35,17.77,26.13-44.94,30.31,11.5,30.31,11.5v19.86l-116-26.13Z" transform="translate(-21 -179.88)"/><path class="cls-6" d="M948.74,847.94c23-59.57,44.94-7.31,44.94-7.31,25.08-35.54,34.49,7.31,34.49,7.31,63.76,12.55,31.36,58.54,31.36,58.54h-31.36Z" transform="translate(-21 -179.88)"/><g id="Capa_4" data-name="Capa 4"><path class="cls-8" d="M527.16,648.49H553.1c-1.42,7.07,0,17.45,0,17.45H527.16C528.58,657.92,527.16,648.49,527.16,648.49Z" transform="translate(-21 -179.88)"/><path class="cls-9" d="M519.12,611.24v16c-2,5.19,1.89,10.38,1.89,10.38C522.42,649,534.48,656,534.48,656a10.33,10.33,0,0,0,5.79,1.6,11.11,11.11,0,0,0,5.61-2.14c12.85-8.41,14.26-17.84,14.26-17.84,2.77-4.25,1.42-9.91,1.42-9.91-1-17.91-1.42-17.91-1.42-17.91l-5.35-5.66-18.33-1.42Z" transform="translate(-21 -179.88)"/><path class="cls-2" d="M537.14,596.15h-.9c-12.63,1-16.69,10.38-16.69,10.38-1.35,5.18-.9,15.08-.9,15.08,1,1.42.75.92,1.64.69,1.13-.3,1.48-1.4,1.72-2.59a7.69,7.69,0,0,1,2.6-4.32,36.25,36.25,0,0,0,6-6c10.37,19,24.53,18.88,24.53,18.88,3.6,6.6,7.21,3.3,7.21,3.3a33.06,33.06,0,0,0,4.12-14.39,19.07,19.07,0,0,0-2.36-8.48c-4.24-8-7.62-8.72-11.61-11.55-3.49-2.48-7.56-4-11.66-3C538,594.86,537.14,596.15,537.14,596.15Z" transform="translate(-21 -179.88)"/><path class="cls-10" d="M546.18,647.31c0,2-3.07,3.7-6.86,3.7s-6.85-1.66-6.85-3.7S546.18,645.26,546.18,647.31Z" transform="translate(-21 -179.88)"/><path class="cls-11" d="M530.42,621.58a22.6,22.6,0,0,1,4.94.45c.63.11,1.14.23,1.49.31l.56.12s-.18.09-.53.23-.85.3-1.48.47a22.87,22.87,0,0,1-4.91.69,41.11,41.11,0,0,1-4.87-.23l-.84-.06-.65,0h-.57s.15-.13.47-.35l.6-.34c.24-.11.52-.23.83-.35A16,16,0,0,1,530.42,621.58Z" transform="translate(-21 -179.88)"/><path class="cls-8" d="M536.44,634.82a14,14,0,0,0-.27,1.53,11.94,11.94,0,0,0-.1,1.46,5.09,5.09,0,0,0,.2,1.37,2.33,2.33,0,0,0,.66,1.09,1.56,1.56,0,0,0,1,.4,2.54,2.54,0,0,0,.72-.06l.43-.12.15,0h-.59a1.59,1.59,0,0,1-1.27-.55,3,3,0,0,1-.31-2c0-.41.12-.86.21-1.33s.19-1,.3-1.44c.23-1,.5-1.89.78-2.72s.58-1.6.75-2.28a6.52,6.52,0,0,0,.23-1.64c0-.19,0-.34,0-.44l0-.16,0,.16c0,.09-.06.24-.1.42a9,9,0,0,1-.59,1.46c-.29.6-.7,1.28-1.1,2.12A13.62,13.62,0,0,0,536.44,634.82Z" transform="translate(-21 -179.88)"/><path class="cls-11" d="M551.7,631.15c0,1.19-1.11-.58-2.47-.55s-2.45,1.87-2.48.68a2.5,2.5,0,0,1,5-.13Z" transform="translate(-21 -179.88)"/><path class="cls-11" d="M532.25,631.08c0,1.19-1.1-.59-2.47-.55s-2.45,1.86-2.48.68a2.5,2.5,0,0,1,5-.13Z" transform="translate(-21 -179.88)"/><path class="cls-12" d="M517.78,972.16c1.74,10,5.36,23.84,5.36,23.84h0c-89.24,25.39,18,17.24,18,17.24l-6.93-41.08Z" transform="translate(-21 -179.88)"/><path class="cls-12" d="M594.16,988.76c-78.33,49.74,22.2,11.39,22.2,11.39L598,962.74" transform="translate(-21 -179.88)"/><path class="cls-9" d="M498.24,782.11h9.68a1.81,1.81,0,0,1,1.61,1c5.82,10.8,2.18,27.58,2.07,27.75-5.61,8.85-10.87,3.23-11.91,2a2,2,0,0,1-.29-.49,26.75,26.75,0,0,1-1.08-15.16c.38,3.54-1.47,5.35-2,6.71a1.83,1.83,0,0,1-3.52-.82,52.35,52.35,0,0,1,1.56-8.6l0-.13,2.07-10.7A1.83,1.83,0,0,1,498.24,782.11Z" transform="translate(-21 -179.88)"/><path class="cls-13" d="M538.43,998.93,518,998.76l-14.91-90.7c-4.66-12.1,0-32.83,0-32.83l4.66-93.29,34.47-5.19,2.8,61.34-12.12,51.83Z" transform="translate(-21 -179.88)"/><path class="cls-14" d="M571.65,769.15c11.15,25.1,4.9,56.38,2.85,65A19.27,19.27,0,0,0,574,839l.88,54.37,35.28,94.33-19.43,5-41-85.52c-8.39-10.36-7.46-24.18-7.46-24.18L530,807.31c-1.86-8.64-8.71-25.21-8.71-25.21Z" transform="translate(-21 -179.88)"/><path class="cls-9" d="M579.63,784.7h9.68a1.81,1.81,0,0,1,1.61,1c5.82,10.8,2.17,27.58,2.07,27.75-5.61,8.85-10.87,3.23-11.91,2a1.86,1.86,0,0,1-.29-.49,26.75,26.75,0,0,1-1.08-15.16c.38,3.54-1.47,5.35-2,6.71a1.83,1.83,0,0,1-3.52-.81,52.32,52.32,0,0,1,1.56-8.61l0-.13,2.07-10.7A1.83,1.83,0,0,1,579.63,784.7Z" transform="translate(-21 -179.88)"/><path class="cls-15" d="M517.08,787.05H495.46c-2.16-78.45,7.57-107,7.57-107,21.62-34.77,31.35,0,31.35,0Z" transform="translate(-21 -179.88)"/><path class="cls-16" d="M505.49,788.66c32.73,12.48,71.23,1.78,71.23,1.78L573,668l-16.44-6.84c-18.29,8.92-32.73,1.78-32.73,1.78-12.51,3.57-15.4,11.59-15.4,11.59Z" transform="translate(-21 -179.88)"/><path class="cls-15" d="M576.72,790.44h18.63c1.87-78.45-6.52-107-6.52-107-18.63-34.77-27,0-27,0Z" transform="translate(-21 -179.88)"/><path class="cls-3" d="M249.37,832.53c-12.28-29.07-41.76-5.49-41.76-5.49-49.13-56.44-79.44,15.68-79.44,15.68-16-6.86-24.61-1.72-29.22,6.24-7.1,12.24-2.64,27.95,9.41,35.37,51.5,31.74,97.12,16,123.22.56C249.65,874.23,257.54,851.86,249.37,832.53Z" transform="translate(-21 -179.88)"/><path class="cls-3" d="M510.21,624.27c-6.22-13.47-21.15-2.54-21.15-2.54-24.88-26.16-40.23,7.26-40.23,7.26-8.11-3.18-12.46-.79-14.8,2.89-3.59,5.67-1.33,13,4.76,16.39,26.09,14.71,49.19,7.39,62.41.26C510.35,643.59,514.34,633.23,510.21,624.27Z" transform="translate(-21 -179.88)"/><path class="cls-3" d="M472.6,640.31c-6.14-9.37-20.87-1.77-20.87-1.77-24.55-18.19-39.7,5.06-39.7,5.06-8-2.21-12.3-.56-14.6,2-3.55,3.95-1.32,9,4.7,11.4a84.28,84.28,0,0,0,61.58.18C472.74,653.75,476.68,646.54,472.6,640.31Z" transform="translate(-21 -179.88)"/><path class="cls-3" d="M178.91,865.7c-6.2-34.34,61.14-23,61.14-23,47.4-41.9,81.07-12.37,58.92,15.8S185.12,900,178.91,865.7Z" transform="translate(-21 -179.88)"/><path class="cls-3" d="M1031.09,852C1037.3,817.7,970,829,970,829c-47.4-41.9-81.07-12.36-58.92,15.8S1024.89,886.38,1031.09,852Z" transform="translate(-21 -179.88)"/><path class="cls-6" d="M408.82,669.38c-1.77-18.13,17.47-12.14,17.47-12.14,13.55-22.12,23.17-6.53,16.84,8.33S410.6,687.5,408.82,669.38Z" transform="translate(-21 -179.88)"/><path class="cls-3" d="M676.07,658.17c-2.13-24.08,21-16.13,21-16.13,16.28-29.37,27.85-8.67,20.24,11.07S678.21,682.24,676.07,658.17Z" transform="translate(-21 -179.88)"/><path class="cls-6" d="M723.67,645.88c.86-14.18-8.52-9.5-8.52-9.5-6.6-17.3-11.29-5.11-8.2,6.52S722.8,660.06,723.67,645.88Z" transform="translate(-21 -179.88)"/><path class="cls-6" d="M703.41,658.76c-.86-14.18,8.52-9.5,8.52-9.5,6.6-17.3,11.29-5.11,8.2,6.52S704.28,672.94,703.41,658.76Z" transform="translate(-21 -179.88)"/></g><path class="cls-6" d="M895.94,838.45c-1.77-18.12,17.47-12.14,17.47-12.14,13.54-22.12,23.17-6.53,16.84,8.33S897.71,856.58,895.94,838.45Z" transform="translate(-21 -179.88)"/></g></svg>