<svg xmlns="http://www.w3.org/2000/svg" viewBox="0 0 1089.95 1091"><defs><style>.cls-1{fill:#8c4c24;}.cls-2{fill:#ed1c24;}.cls-3{fill:#ff8455;}.cls-4{fill:#c1272d;}.cls-5{fill:#e2a06f;}.cls-6{fill:#4d4d4d;}.cls-7{fill:#136771;}.cls-8{fill:#a9f0b6;}.cls-9{fill:#f3b980;}.cls-10{fill:gray;}.cls-11{fill:#302a2a;}.cls-12,.cls-15{fill:#42210b;}.cls-12,.cls-13{stroke:#000;stroke-miterlimit:10;}.cls-12{stroke-width:0.25px;}.cls-13{fill:none;}.cls-14{fill:#fff;}.cls-16{fill:#603813;}.cls-17{fill:#ccc;}.cls-18{fill:#999;}.cls-19{fill:#dfd500;}.cls-20{fill:#fbb03b;}.cls-21{fill:#5b9000;}.cls-22{fill:#9ee900;}.cls-23{fill:#4affab;}.cls-24{fill:#ff860a;}.cls-25{fill:#754c24;}.cls-26{fill:#c69c6d;}.cls-27{fill:#29abe2;}.cls-28{fill:#fcee21;}</style></defs><title>ariel_computadora</title><g id="Capa_5" data-name="Capa 5"><path class="cls-1" d="M518.26,929.27C407,1324.1,579.44,916.75,579.44,916.75Z" transform="translate(-58.09 -73)"/><path class="cls-1" d="M891.28,929.57c111.22,394.84-61.18-12.51-61.18-12.51Z" transform="translate(-58.09 -73)"/></g><g id="Capa_2" data-name="Capa 2"><rect class="cls-2" x="429.59" y="255.67" width="462.96" height="489.37" rx="45.42"/><path class="cls-3" d="M387.58,954.29h342l-.56-113H519.4V547.37a7.77,7.77,0,0,0-7.79-7.75H420.18a32.06,32.06,0,0,0-32.15,32Z" transform="translate(-58.09 -73)"/><path class="cls-3" d="M1046.56,954.29H714.29l-.55-112.56H923.37V547.8a7.77,7.77,0,0,1,7.79-7.75h91.43a32.05,32.05,0,0,1,32.14,32Z" transform="translate(-58.09 -73)"/><polygon class="cls-4" points="461.57 788.14 864.74 788.14 864.74 618.67 461.57 618.16 461.57 788.14"/></g><g id="Capa_3" data-name="Capa 3"><path class="cls-5" d="M675.42,270.11h87.3c-4.76,23.81,0,58.73,0,58.73h-87.3C680.18,301.85,675.42,270.11,675.42,270.11Z" transform="translate(-58.09 -73)"/><polygon class="cls-6" points="490.76 586.55 685.4 560.14 870.3 589.34 617.28 720.02 506.25 696.03 490.76 586.55"/><path class="cls-7" d="M576.92,332.81l85.34-29.44a16.34,16.34,0,0,1,10.07-.18c41,12.44,80,3.68,93.38-.09a16.32,16.32,0,0,1,10,.32l81.81,29.25a.61.61,0,0,1,.4.55l4.52,229.34c.14,7.06-.94,83.82-7.7,85.87C731,686,632.45,668.79,596.12,658.16c-7-2-19.2-88.6-19.2-95.86V332.81" transform="translate(-58.09 -73)"/><path class="cls-8" d="M873.75,340.48l-15.87-7.42c1.59,53.8-12.7,96.47-12.7,96.47V539c-1.59,24.12-15.87,29.68-15.87,29.68H817.84c-4.13,0-7.54,3.59-7.9,8.23-2,25.16-12.38,41.86-12.38,41.86-1.59,11.13,6.35,13,6.35,13h31.75c14.28-1.86,58.73-27.83,58.73-27.83,7.93-3.71,9.52-16.7,9.52-16.7C907.09,425.82,873.75,340.48,873.75,340.48Z" transform="translate(-58.09 -73)"/><path class="cls-8" d="M561.29,340.33,576,333.45a.65.65,0,0,1,.88.69c-1.32,51.71,11.92,92.88,12.69,95.26a.62.62,0,0,1,0,.23V539c1.52,22.89,14.48,29,15.77,29.61a.54.54,0,0,0,.22,0H617c4.12,0,7.52,3.58,7.88,8.21,1.88,23.88,11.33,40.15,12.3,41.76a.67.67,0,0,1,.1.31c1.4,10.35-5.5,12.57-6.3,12.79l-.14,0H599.1c-14.33-1.9-58.69-27.82-58.69-27.82-7.7-3.61-9.42-15.95-9.52-16.67v-.08c-3.07-156.14,28-241.1,30.05-246.46A.69.69,0,0,1,561.29,340.33Z" transform="translate(-58.09 -73)"/><path class="cls-9" d="M635.55,761c-79.9,18.43-115.43,18.16-115.43,18.16l13.26,44.44c.81,8.7,25.33,11.27,25.33,11.27l108.35-16.06Z" transform="translate(-58.09 -73)"/><path class="cls-10" d="M623.8,776.66c-1.4-5.78,1.46-11.77,6.55-13.7l251.24-95a116,116,0,0,1,24.91-8.16c28.85-5.91,57.39,14.08,63.43,46.07,6.53,34.68-17.14,61.65-31.08,67.8-31.26,13.8-248.71,42.25-295.08,48.21-5,.64-9.66-2.89-11-8.29Z" transform="translate(-58.09 -73)"/><path class="cls-11" d="M567.89,803.41c-1.38,19.24,66,28.87-42.7,35.73-44.1,2.79-66.1-21.57-64.72-40.81s25.79-23.65,69.71-28.86C618.71,759,569.27,784.18,567.89,803.41Z" transform="translate(-58.09 -73)"/><path class="cls-9" d="M723,978.14c41.81,78.06,66,107.05,66,107.05l-38.36,19.16c-6.3,5.21-24.57-13.19-24.57-13.19l-62.62-99.82Z" transform="translate(-58.09 -73)"/><path class="cls-10" d="M720.6,998.37c4.77-2.75,6.8-9.16,4.63-14.63l-107-270.53a147.07,147.07,0,0,0-11.44-26c-15.59-27.69-48.11-37.61-73.35-20.94-27.35,18.07-29.19,55.74-23.84,71.33,12,35,140.16,232.78,167.57,274.88,2.95,4.54,8.44,6,12.9,3.41Z" transform="translate(-58.09 -73)"/><path class="cls-11" d="M740.69,1062.36c-11.79,14.14-63.67-34.65,5.23,59.21,28,38.1,59,39.7,70.75,25.56s-1.79-37.16-28-76.75C735.73,990.6,752.49,1048.23,740.69,1062.36Z" transform="translate(-58.09 -73)"/><path class="cls-9" d="M647,133.74v55.69c-6.89,18,6.55,36,6.55,36,4.91,39.31,46.78,63.88,46.78,63.88a35.81,35.81,0,0,0,20.15,5.54c7.11-.22,13.51-3.55,19.47-7.44,44.64-29.22,49.56-62,49.56-62,9.59-14.74,4.91-34.4,4.91-34.4-3.44-62.24-4.91-62.24-4.91-62.24l-18.61-19.66-63.68-4.91Z" transform="translate(-58.09 -73)"/><ellipse class="cls-12" cx="697.93" cy="126.86" rx="7.09" ry="10.23"/><path class="cls-13" d="M705.7,191.86" transform="translate(-58.09 -73)"/><path class="cls-14" d="M744,259c0,7.1-10.66,12.86-23.82,12.86s-23.81-5.76-23.81-12.86S744,251.94,744,259Z" transform="translate(-58.09 -73)"/><ellipse class="cls-15" cx="634.17" cy="126.86" rx="7.09" ry="10.23"/><path class="cls-5" d="M727.55,216.12a48.6,48.6,0,0,1,.93,5.36,37.13,37.13,0,0,1,.27,5.14,17.66,17.66,0,0,1-.78,4.87,8.46,8.46,0,0,1-2.45,3.89,5.65,5.65,0,0,1-3.52,1.38,8.38,8.38,0,0,1-2.57-.31c-.66-.18-1.15-.35-1.49-.48l-.5-.19.54,0c.35,0,.87,0,1.52-.09,1.26-.11,3.24-.46,4.21-2s1.17-4,.82-6.86c-.17-1.41-.47-3-.78-4.58s-.67-3.26-1.07-4.94c-.79-3.37-1.67-6.55-2.6-9.42s-1.91-5.6-2.44-8a22,22,0,0,1-.64-5.77,15.26,15.26,0,0,1,.15-1.55l.08-.54.13.53c.08.34.23.83.42,1.46a30.85,30.85,0,0,0,2.2,5c1.07,2,2.55,4.36,4,7.25A46.44,46.44,0,0,1,727.55,216.12Z" transform="translate(-58.09 -73)"/><path class="cls-15" d="M687.68,172.15a63.7,63.7,0,0,1,15.84,1.72c2,.46,3.65.89,4.8,1.2s1.8.48,1.8.48-.58.33-1.69.84a43.37,43.37,0,0,1-4.76,1.7,63.3,63.3,0,0,1-15.73,2.5,99,99,0,0,1-15.58-1l-2.71-.31-2.08-.19-1.84,0s.46-.45,1.46-1.23c.51-.34,1.14-.72,1.91-1.17s1.66-.81,2.66-1.25A47.4,47.4,0,0,1,687.68,172.15Z" transform="translate(-58.09 -73)"/><path class="cls-15" d="M761,172.19a63.23,63.23,0,0,0-15.84,1.72c-2,.46-3.65.89-4.8,1.2s-1.8.48-1.8.48.58.32,1.69.83a43.05,43.05,0,0,0,4.76,1.71,63.3,63.3,0,0,0,15.73,2.5,97.42,97.42,0,0,0,15.57-1l2.72-.31,2.08-.18,1.84,0a18.06,18.06,0,0,0-1.46-1.22c-.51-.35-1.14-.73-1.91-1.17s-1.66-.81-2.66-1.25A47.15,47.15,0,0,0,761,172.19Z" transform="translate(-58.09 -73)"/><path class="cls-16" d="M708.18,81.21h-3.13c-43.87,3.27-58,36-58,36-4.7,18-3.13,52.42-3.13,52.42,3.36,4.91,7,5.61,10.07,4.81,3.92-1,6.72-4.55,7.56-8.69,2-9.72,10.57-17.42,10.57-17.42,14.1-11.46,21.63-18.68,21.63-18.68,33,51.72,84.18,49,84.18,49,12.54,22.93,17.95,25.4,17.95,25.4,9.59-15.5,14.24-39.11,14.31-50,.06-9.78-3.65-20.9-8.19-29.49-14.74-27.84-26.49-30.3-40.33-40.11-12.16-8.6-26.26-14-40.52-10.33C711.24,76.73,708.18,81.21,708.18,81.21Z" transform="translate(-58.09 -73)"/></g><g id="Capa_4" data-name="Capa 4"><line class="cls-17" x1="657.59" y1="400.26" x2="511.93" y2="400.26"/><line class="cls-17" x1="652.03" y1="400.26" x2="797.69" y2="400.26"/><path class="cls-17" d="M583.93,453.8a12.76,12.76,0,0,0-12.7,14.13l7.83,188.18a9.4,9.4,0,0,0,9.39,9H729.58V453.8" transform="translate(-58.09 -73)"/><path class="cls-17" d="M869.68,453.8a12.76,12.76,0,0,1,12.7,14.13l-7.83,188.18a9.41,9.41,0,0,1-9.4,9H724V453.8" transform="translate(-58.09 -73)"/><circle class="cls-18" cx="668.72" cy="493.41" r="23.63"/><path class="cls-1" d="M114.27,628.85c-110.17,1092.89,34.19-2.66,34.19-2.66Z" transform="translate(-58.09 -73)"/><path class="cls-1" d="M311.86,633.12C422,1726,277.67,630.46,277.67,630.46Z" transform="translate(-58.09 -73)"/><path class="cls-1" d="M220.63,633.81c-30.13,1063,33.89-5.14,33.89-5.14Z" transform="translate(-58.09 -73)"/><ellipse class="cls-1" cx="155.71" cy="553.88" rx="155.71" ry="20.16"/><path class="cls-19" d="M43.63,473.94h71.22a20,20,0,0,1,20,20v23.42a40,40,0,0,1-40,40H63.63a40,40,0,0,1-40-40V493.94a20,20,0,0,1,20-20Z"/><ellipse class="cls-20" cx="79.94" cy="491.32" rx="38.23" ry="10.43"/><path class="cls-21" d="M129,531.83c0-16,9-29,9-29s9,13,9,29-4,29-9,29S129,547.86,129,531.83Z" transform="translate(-58.09 -73)"/><path class="cls-21" d="M160.16,530.32c5.1-16.84,17.78-27.89,17.78-27.89s4.43,16.24-.67,33.07-13.07,29.31-17.79,27.88S155.06,547.15,160.16,530.32Z" transform="translate(-58.09 -73)"/><path class="cls-21" d="M119,539.38c-5.1-16.83-17.78-27.88-17.78-27.88s-4.43,16.23.67,33.07,13.07,29.31,17.79,27.88S124.07,556.21,119,539.38Z" transform="translate(-58.09 -73)"/><path class="cls-22" d="M144.49,542.26c.76-16,10.4-28.55,10.4-28.55s8.41,13.4,7.65,29.41-5.41,28.79-10.4,28.55S143.73,558.27,144.49,542.26Z" transform="translate(-58.09 -73)"/><path class="cls-22" d="M119.46,536.88c.38-17.58,9.73-31.64,9.73-31.64s8.72,14.45,8.34,32-4.75,31.74-9.74,31.63S119.07,554.46,119.46,536.88Z" transform="translate(-58.09 -73)"/><path class="cls-21" d="M130.46,549.39c.32-14.52,9.61-26.08,9.61-26.08s8.77,12,8.46,26.47-4.63,26.19-9.61,26.08S130.14,563.9,130.46,549.39Z" transform="translate(-58.09 -73)"/><polygon class="cls-23" points="219.66 320.84 94.15 320.84 130.51 95.62 219.66 95.62 219.66 320.84"/><polygon class="cls-23" points="219.66 320.84 345.18 320.84 308.81 95.62 219.66 95.62 219.66 320.84"/><path class="cls-24" d="M280.53,394h-32c34.76,45.72,0,105.93,0,105.93-47.26,49.05,15.3,119.3,15.3,119.3h16.68Z" transform="translate(-58.09 -73)"/><path class="cls-24" d="M273.58,394h32c-34.75,45.72,0,105.93,0,105.93,47.27,49.05-15.29,119.3-15.29,119.3H273.58Z" transform="translate(-58.09 -73)"/></g><g id="Capa_6" data-name="Capa 6"><path class="cls-25" d="M1140.41,1086.55c-38.56,51-91.07,35-91.07,35l-3,17.52c76.53,2.73,98.93-50.44,98.93-50.44C1153.6,1068,1140.41,1086.55,1140.41,1086.55Z" transform="translate(-58.09 -73)"/><path class="cls-25" d="M1023.62,894.9c-.28-.41-.59-.81-.9-1.2-30.18-36.92-29,10.88-29,10.88l.33,31.56a17.7,17.7,0,0,0,10.47,16.22c17,7.6,28.34-.73,35-9.47,5.43-7.1,5.86-16.25,1.26-22.95Z" transform="translate(-58.09 -73)"/><path class="cls-26" d="M942.06,866.25c82.14-5.28,75.11,47.47,73.92,60.23-.12,1.25-12.83,28-12.51,29.2,13.9,52.83,61.17,95.93,66.82,109,33,76.45-31.21,89.92-31.21,89.92-56.54,13-80.61,10.15-96.79,5.44-3.93-1.15-12.86-6.57-14.13-10.47-20.62-63.22,27.51-62.11,27.51-62.11-10.46,1.74-45.35,64.24-57.86,67-7.31,1.62-12.52-5.56-9.74-11.12s47.27-116.79,54.86-183.65c.75-5.43.3-13.88-5-18.35a18.62,18.62,0,0,0-2.45-1.77,17.11,17.11,0,0,1-2.78-2.16c-54.61-51.91-46.69-66.56-41-70.43a17.74,17.74,0,0,0,4.72-4.46c9.27-13.39,27.11-4.3,35.42,1.05A16.76,16.76,0,0,0,942.06,866.25Z" transform="translate(-58.09 -73)"/><rect class="cls-27" x="942.29" y="947.34" width="65.34" height="12.51" rx="4.5" transform="translate(1891.84 1834.19) rotate(180)"/><path class="cls-25" d="M998,913.29a15,15,0,0,0-.16-1.5c-7.08-47.16-30.47-5.45-30.47-5.45l-15.84,27.31a17.66,17.66,0,0,0,.72,19.28c10.71,15.22,24.74,13.85,34.94,9.76,8.31-3.34,13.35-11,12.81-19.09Z" transform="translate(-58.09 -73)"/><path class="cls-15" d="M942.7,882.71c2.08-3.47,6.87-4.41,10.7-2.11s5.25,7,3.18,10.43-.75-6.07-4.58-8.37S940.62,886.17,942.7,882.71Z" transform="translate(-58.09 -73)"/><path class="cls-15" d="M915.92,856.34c-1.43,22.88-19.5,6.19-19.5,6.19C902,848.63,915.92,856.34,915.92,856.34Z" transform="translate(-58.09 -73)"/><path class="cls-25" d="M1062.25,1063.77a49.59,49.59,0,0,1,5.44,11.15c5.5,15.33-15.37,26-24.57,12.58l-.09-.14a3.9,3.9,0,0,1-.65-2.09c-.32-16.46-7.49-35.67,1.26-34.15C1051.33,1052.47,1057.83,1057.34,1062.25,1063.77Z" transform="translate(-58.09 -73)"/><path class="cls-25" d="M1046.71,1033.84l-16.32-22.17c-10.24,10.74-6.07,16.3-.51,17.69s8.34,8.35,8.34,8.35c4.17,7,12.54,1.2,12.54,1.2Z" transform="translate(-58.09 -73)"/><ellipse class="cls-25" cx="971.79" cy="971.66" rx="2.78" ry="4.17"/><path class="cls-25" d="M936.37,1098.24a158.44,158.44,0,0,1-10.76,24.24,63.44,63.44,0,0,1-4.36,6.8l-1.9,2.27,1.4-2.58c.82-1.7,2-4.17,3.17-7.3,2.47-6.24,5.49-15,8.92-24.69s6.73-18.37,9.13-24.69l2.83-7.48c.32-.89.58-1.58.73-2l.24-.72-.08.75c-.05.5-.17,1.23-.33,2.17-.31,1.87-.85,4.57-1.6,7.88A229.35,229.35,0,0,1,936.37,1098.24Z" transform="translate(-58.09 -73)"/><path class="cls-25" d="M953.91,1099.76A60.34,60.34,0,0,0,932,1111.33l-1.84,1.54a2.71,2.71,0,0,1-.25.18l-.21.13-.39.29c-.25.2-.49.41-.71.62a14.71,14.71,0,0,0-2,2.55c-.49.77-.84,1.39-1.08,1.81l-.37.65.22-.71c.15-.46.37-1.15.71-2a14,14,0,0,1,1.63-3,8.5,8.5,0,0,1,.69-.84c.13-.13.26-.28.4-.41l.22-.2a.86.86,0,0,0,.17-.17c.4-.46,1-1.14,1.52-1.73a49.12,49.12,0,0,1,8.95-7.7,46.24,46.24,0,0,1,13.21-6.12,44.52,44.52,0,0,1,14.5-1.58,48.21,48.21,0,0,1,11.61,2.15,56.6,56.6,0,0,1,7.32,2.92l2.55,1.32-2.76-.77c-1.77-.48-4.35-1.1-7.54-1.65a62,62,0,0,0-11.23-.81A54.88,54.88,0,0,0,953.91,1099.76Z" transform="translate(-58.09 -73)"/><ellipse class="cls-28" cx="884.9" cy="891.72" rx="2.09" ry="9.04"/></g></svg>