<svg xmlns="http://www.w3.org/2000/svg" viewBox="0 0 1200 954.94"><defs><style>.cls-1{fill:#a9f0b6;}.cls-2{fill:#8c4c24;}.cls-3{fill:#ad6239;}.cls-4{fill:#138871;}.cls-5{fill:#9ee900;}.cls-6{fill:#d47700;}.cls-7{fill:#6b8871;}.cls-8{fill:#9e9000;}.cls-9{fill:#139cab;}.cls-10{fill:#5b9000;}.cls-11{fill:#4affab;}.cls-12{fill:#ff860a;}.cls-13{fill:#ed5324;}.cls-14{fill:#159fff;}.cls-15{fill:#0025df;}.cls-16{fill:#5c9fff;}.cls-17{fill:#fbb03b;}.cls-18{fill:#29abe2;}.cls-19{fill:#dfd500;}.cls-20{fill:#00b451;}.cls-21{fill:#ed1c24;}.cls-22{fill:#fff;}.cls-23{fill:#137471;}.cls-24{fill:#f7931e;}.cls-25{fill:#8cc63f;}.cls-26{fill:#0071bc;}.cls-27{fill:#e2a06f;}.cls-28{fill:#f3b980;}.cls-29,.cls-37{fill:#42210b;}.cls-29,.cls-36{stroke:#000;}.cls-29,.cls-36,.cls-38{stroke-miterlimit:10;}.cls-29{stroke-width:0.25px;}.cls-30{fill:#603813;}.cls-31{fill:#4d4d4d;}.cls-32{fill:#302a2a;}.cls-33{fill:gray;}.cls-34{fill:#136771;}.cls-35{fill:#c1272d;}.cls-36,.cls-38{fill:none;}.cls-38{stroke:#006837;stroke-width:2px;}.cls-39{fill:#39b54a;}.cls-40{fill:#006837;}</style></defs><title>ariel_librero</title><g id="Capa_2" data-name="Capa 2"><path class="cls-1" d="M742.79,1023.43c0,38.72-166.28,70.11-371.39,70.11S0,1062.15,0,1023.43s166.28-70.1,371.4-70.1S742.79,984.72,742.79,1023.43Z" transform="translate(0 -160.83)"/></g><g id="Capa_3" data-name="Capa 3"><rect class="cls-2" x="710.43" y="817.35" width="63.31" height="63.31" rx="12"/><rect class="cls-2" x="1042.44" y="817.35" width="63.31" height="63.31" rx="12"/><rect class="cls-3" x="652.75" width="547.25" height="832.83" rx="33.6"/><rect class="cls-2" x="682.3" y="562.72" width="486.75" height="225.09" rx="12"/><rect class="cls-2" x="682.3" y="303.87" width="486.75" height="225.09" rx="12"/><rect class="cls-2" x="682.3" y="45.02" width="486.75" height="225.09" rx="12"/><rect class="cls-4" x="748.42" y="130.83" width="53.46" height="139.27" rx="7"/><rect class="cls-5" x="807.5" y="80.19" width="68.93" height="189.92" rx="7"/><rect class="cls-6" x="883.47" y="98.48" width="59.09" height="171.63" rx="7"/><rect class="cls-7" x="952.4" y="290.26" width="53.46" height="139.27" rx="7" transform="translate(-27.84 -73.37) rotate(-5.04)"/><rect class="cls-8" x="687.92" y="339.04" width="68.93" height="189.92" rx="7"/><rect class="cls-9" x="690.74" y="130.83" width="53.46" height="139.27" rx="7"/><rect class="cls-10" x="761.08" y="355.92" width="59.09" height="173.04" rx="7"/><rect class="cls-11" x="824.38" y="346.07" width="52.05" height="182.88" rx="7"/><rect class="cls-12" x="882.06" y="346.07" width="52.05" height="182.88" rx="7"/><rect class="cls-11" x="1104.34" y="393.9" width="19.7" height="135.05" rx="3"/><rect class="cls-13" x="1129.83" y="394.58" width="30.78" height="135.05" rx="3"/><rect class="cls-14" x="771.63" y="801.63" width="59.09" height="223.68" rx="7" transform="translate(1714.64 -48.53) rotate(90)"/><rect class="cls-15" x="762.49" y="744.65" width="59.09" height="213.83" rx="7" transform="translate(1643.6 -101.29) rotate(90)"/><rect class="cls-16" x="733.49" y="728.88" width="42.77" height="139.02" rx="7" transform="translate(1553.27 -117.31) rotate(90)"/><rect class="cls-17" x="979.13" y="614.77" width="59.09" height="173.04" rx="7"/><rect class="cls-18" x="1042.44" y="604.92" width="52.05" height="182.88" rx="7"/><rect class="cls-12" x="1100.12" y="604.92" width="52.05" height="182.88" rx="7"/><rect class="cls-19" x="1066.07" y="394.8" width="30.78" height="135.05" rx="3"/><rect class="cls-20" x="1005.86" y="393.9" width="19.7" height="135.05" rx="3"/><rect class="cls-21" x="1030.9" y="394.8" width="30.78" height="135.05" rx="3"/><rect class="cls-20" x="980.54" y="393.9" width="19.7" height="135.05" rx="3"/><rect class="cls-22" x="807.5" y="112.54" width="68.93" height="21.1"/><rect class="cls-22" x="824.38" y="395.31" width="52.05" height="7.03"/><rect class="cls-22" x="824.38" y="405.16" width="52.05" height="7.03"/><ellipse class="cls-22" cx="1067.76" cy="623.92" rx="21.1" ry="3.52"/><rect class="cls-22" x="974.91" y="381.7" width="14.07" height="32.36" rx="5" transform="translate(-31.17 -72.98) rotate(-5.04)"/><rect class="cls-23" x="748.42" y="149.12" width="53.46" height="8.44"/><rect class="cls-24" x="1070.57" y="395.31" width="4.22" height="133.65"/><rect class="cls-25" x="687.92" y="361.55" width="68.93" height="4.22"/><rect class="cls-22" x="715.4" y="644.11" width="14.35" height="51.69" rx="5" transform="translate(1392.53 -213.45) rotate(90)"/><rect class="cls-26" x="876.44" y="723.09" width="7.03" height="59.09"/></g><g id="Capa_1" data-name="Capa 1"><path class="cls-27" d="M346.76,496.45h98.48c-5.38,26.86,0,66.24,0,66.24H346.76C352.14,532.26,346.76,496.45,346.76,496.45Z" transform="translate(0 -160.83)"/><path class="cls-28" d="M316.23,355v60.87c-7.52,19.7,7.16,39.39,7.16,39.39,5.38,43,51.14,69.83,51.14,69.83a39.24,39.24,0,0,0,22,6c7.78-.24,14.78-3.88,21.29-8.14,48.8-31.93,54.17-67.74,54.17-67.74,10.48-16.11,5.37-37.6,5.37-37.6-3.76-68-5.37-68-5.37-68l-20.35-21.49-69.6-5.37Z" transform="translate(0 -160.83)"/><ellipse class="cls-29" cx="438.85" cy="266.45" rx="7.74" ry="11.19"/><path class="cls-30" d="M384.64,297.72h-3.43c-47.94,3.58-63.36,39.39-63.36,39.39-5.13,19.69-3.42,57.29-3.42,57.29,3.67,5.37,7.65,6.14,11,5.26,4.28-1.12,7.35-5,8.26-9.5,2.16-10.62,11.55-19,11.55-19,15.41-12.53,23.65-20.42,23.65-20.42C393,435,453.13,419.46,453.13,419.46c13.7,25.07,27.4,12.54,27.4,12.54,10.48-16.95,15.57-42.75,15.64-54.61.06-10.68-4-22.85-9-32.23-16.11-30.43-28.94-33.12-44.08-43.84-13.28-9.41-28.7-15.31-44.28-11.3C388,292.82,384.64,297.72,384.64,297.72Z" transform="translate(0 -160.83)"/><path class="cls-31" d="M104.12,853.21c275.57-38.67,275.57-38.67,587.09-13.58,17.91,5.35-.67,96.66-.67,96.66l-275.71,73.4L214.3,954.19Z" transform="translate(0 -160.83)"/><polygon class="cls-28" points="401.56 824.48 526.5 881.09 501.4 923.91 372.52 888.25 401.56 824.48"/><path class="cls-28" d="M359.41,978.25c-90.73,27.86-131.91,31.44-131.91,31.44l19.7,44.76c1.79,9,30.43,9,30.43,9l123.93-28.5Z" transform="translate(0 -160.83)"/><path class="cls-32" d="M259.24,1045.54c-.54,20,76.92,17.52-46.86,44.58-50.24,11-76.69-10-76.15-30s28.2-29.06,78.1-42.5C314.92,990.52,259.78,1025.51,259.24,1045.54Z" transform="translate(0 -160.83)"/><path class="cls-33" d="M441.91,1016.94a11.84,11.84,0,0,0-5.86-15.11L157.69,868.5a146.2,146.2,0,0,0-27.75-11.91c-32.6-10.13-68,6.64-79,39-11.87,35,12.13,66.28,27.45,74.58,34.4,18.64,282,78.27,334.83,90.87a11.84,11.84,0,0,0,13.71-7.07Z" transform="translate(0 -160.83)"/><path class="cls-33" d="M347.34,995.81a11.83,11.83,0,0,1,6.24-14.95L635.27,854.7a146.79,146.79,0,0,1,28.05-11.19c32.84-9.29,67.85,8.38,78,41,11,35.34-13.83,66-29.36,73.86-34.86,17.75-283.92,71-337,82.25a11.84,11.84,0,0,1-13.53-7.42Z" transform="translate(0 -160.83)"/><path class="cls-34" d="M235.67,567.17,331.92,534a18.35,18.35,0,0,1,11.35-.2c46.22,14,90.26,4.15,105.34-.11a18.37,18.37,0,0,1,11.24.37l92.27,33a.68.68,0,0,1,.45.63l5.1,258.67a18.33,18.33,0,0,1-12.34,17.75c-125.79,42.7-255.45,11.62-296.43-.37A18.38,18.38,0,0,1,235.67,826V567.17" transform="translate(0 -160.83)"/><path class="cls-21" d="M405.75,725.62c47.7-23.27,111.9-14.32,111.9-14.32-5.5,55.5-14.67,91.31-14.67,91.31-38.53,8.95-97.23,8.95-97.23,8.95Z" transform="translate(0 -160.83)"/><path class="cls-22" d="M405.75,725.62V713.09c38.38-18.43,78.08-17.1,88.62-16.35a12.25,12.25,0,0,1,5.26,1.62A60.83,60.83,0,0,1,515,711.3C459.46,704.14,405.75,725.62,405.75,725.62Z" transform="translate(0 -160.83)"/><path class="cls-21" d="M386.06,725.68c-47.7-23.27-111.9-14.32-111.9-14.32,5.5,55.5,14.67,91.31,14.67,91.31,38.53,9,97.23,9,97.23,9Z" transform="translate(0 -160.83)"/><path class="cls-22" d="M386.06,725.68V713.15c-38.38-18.42-78.08-17.1-88.62-16.35a12.25,12.25,0,0,0-5.26,1.62,61.06,61.06,0,0,0-15.34,12.94C332.35,704.2,386.06,725.68,386.06,725.68Z" transform="translate(0 -160.83)"/><rect class="cls-35" x="386.06" y="564.79" width="19.69" height="85.94"/><rect class="cls-22" x="386.06" y="552.26" width="19.69" height="12.53"/><path class="cls-28" d="M288.45,807.45c30.31-18,55-26.47,66.92-29.91a22.86,22.86,0,0,1,15.94,1.23C398.09,791,398,809.26,393.88,821.64a24.69,24.69,0,0,1-17.39,16.45c-36.24,8.62-80.17,2.95-80.17,2.95h0c-23.36-3-7.87-33.59-7.87-33.59" transform="translate(0 -160.83)"/><path class="cls-28" d="M497.2,809.32c-30.31-18-55-26.47-66.92-29.92a22.92,22.92,0,0,0-15.94,1.24c-26.78,12.25-26.71,30.49-22.57,42.87A24.68,24.68,0,0,0,409.16,840c36.24,8.63,80.17,3,80.17,3h0c23.37-3,7.87-33.59,7.87-33.59" transform="translate(0 -160.83)"/><path class="cls-1" d="M570.47,574.87l-17.91-7.41c1.79,53.73-14.32,96.34-14.32,96.34V773.12c-1.79,24.08-17.9,29.64-17.9,29.64H507.4a9,9,0,0,0-8.91,8.22c-2.24,25.13-14,41.8-14,41.8-1.79,11.12,7.16,13,7.16,13H527.5C543.61,863.9,593.74,838,593.74,838c9-3.7,10.75-16.67,10.75-16.67C608.07,660.1,570.47,574.87,570.47,574.87Z" transform="translate(0 -160.83)"/><path class="cls-1" d="M218,574.76l16.6-6.87a.72.72,0,0,1,1,.69c-1.49,51.64,13.44,92.74,14.32,95.12a.62.62,0,0,1,0,.23V773.15c1.71,22.85,16.33,29,17.79,29.57a.64.64,0,0,0,.24,0h12.83a8.94,8.94,0,0,1,8.89,8.2,93.77,93.77,0,0,0,13.87,41.69.91.91,0,0,1,.12.31c1.57,10.34-6.22,12.56-7.11,12.77a.5.5,0,0,1-.17,0H260.68c-16.16-1.9-66.19-27.79-66.19-27.79-8.7-3.6-10.64-15.93-10.74-16.64a.22.22,0,0,1,0-.08c-3.45-155.92,31.62-240.74,33.91-246.1A.71.71,0,0,1,218,574.76Z" transform="translate(0 -160.83)"/><path class="cls-36" d="M380.41,418.54" transform="translate(0 -160.83)"/><path class="cls-22" d="M422.25,492c0,7.77-11.66,14.06-26,14.06s-26-6.29-26-14.06S422.25,484.2,422.25,492Z" transform="translate(0 -160.83)"/><ellipse class="cls-37" cx="369.15" cy="266.45" rx="7.74" ry="11.19"/><path class="cls-37" d="M361.09,393.57a75.11,75.11,0,0,1,18.77,2c2.39.54,4.32,1.05,5.68,1.42s2.14.57,2.14.57-.69.38-2,1a52,52,0,0,1-5.64,2,75.35,75.35,0,0,1-18.63,3A116.41,116.41,0,0,1,343,402.35l-3.21-.36-2.47-.22-2.18,0s.55-.53,1.73-1.45c.6-.4,1.36-.86,2.27-1.38s2-1,3.15-1.48A55.7,55.7,0,0,1,361.09,393.57Z" transform="translate(0 -160.83)"/><path class="cls-27" d="M409.06,445.11a52.65,52.65,0,0,1,1,5.84,40.57,40.57,0,0,1,.32,5.59,18.92,18.92,0,0,1-.81,5.27A9.11,9.11,0,0,1,407,466a6.13,6.13,0,0,1-3.78,1.52,9.5,9.5,0,0,1-2.79-.3,16.37,16.37,0,0,1-1.63-.5l-.55-.2h.58c.39,0,1,0,1.67-.07,1.37-.1,3.56-.44,4.69-2.16s1.37-4.47,1-7.6c-.18-1.55-.5-3.25-.84-5s-.72-3.57-1.16-5.42c-.86-3.69-1.85-7.17-2.88-10.32s-2.14-6.1-2.75-8.7a24.18,24.18,0,0,1-.76-6.27,16.73,16.73,0,0,1,.13-1.7l.08-.58.14.57c.07.38.22.92.42,1.61a33.53,33.53,0,0,0,2.34,5.51c1.14,2.25,2.74,4.8,4.3,8A51.3,51.3,0,0,1,409.06,445.11Z" transform="translate(0 -160.83)"/><path class="cls-32" d="M487.07,1055.55c-2.78,19.84-78.76,4.57,38.85,51.7,47.73,19.13,77.29,2.81,80.06-17s-23-33.31-70-54.81C441.24,992.08,489.84,1035.71,487.07,1055.55Z" transform="translate(0 -160.83)"/></g><g id="Capa_5" data-name="Capa 5"><path class="cls-38" d="M1039,158.91" transform="translate(0 -160.83)"/><path class="cls-39" d="M1012.1,320.86a.84.84,0,0,1,.16-.65l4.19-5.61a.8.8,0,0,1,1.53.31l1.14,6.16a.88.88,0,0,1,0,.16c0,.58-.35,1.86.13,1.71l6.82-2.2a1.68,1.68,0,0,1,2,2.4l-2,3.69a1.69,1.69,0,0,0,.7,2.3l5.78,3a1.68,1.68,0,0,1,.25,2.83l-4,3.08a1.68,1.68,0,0,0-.07,2.61l6.61,5.67a1.68,1.68,0,0,1,.08,2.48l-6.72,6.57a1.68,1.68,0,0,0,1,2.88l5.12.44a1.67,1.67,0,0,1,1.41,2.3l-3.68,9.1a1.68,1.68,0,0,0,1.77,2.29l6.27-.77a1.69,1.69,0,0,1,1.84,1.26l1.42,5.65a1.68,1.68,0,0,0,3.11.39l7.72-14.35a1.67,1.67,0,0,1,2.51-.53l11.27,8.74a1.68,1.68,0,0,0,2,0l14.27-10.27a1.68,1.68,0,0,1,2.63,1l2.49,12.84a1.67,1.67,0,0,0,1.4,1.34l17.3,2.5a1.7,1.7,0,0,1,1.41,2l-3.44,18.17a1.68,1.68,0,0,0,1.85,2l13.84-1.66a1.68,1.68,0,0,1,1.83,1.24l2.42,9.33a1.68,1.68,0,0,0,2.25,1.14l5.3-2.13a1.68,1.68,0,0,1,2,.52l5,6.45a1.68,1.68,0,0,0,2.46.2l3.63-3.33a1.68,1.68,0,0,1,2.55.32l1.33,2.05a1.68,1.68,0,0,1-.91,2.51l-14.73,1.05c-.41.13-6.51-2-6.9-2.24l-43.26-19.63a1.85,1.85,0,0,0-.61-.17l-43.72-3.34a1.7,1.7,0,0,1-1.11-.54l-14.33-15.65a1.71,1.71,0,0,1-.43-1l-2.77-32.27a1.11,1.11,0,0,0,0-.17l-3-15.59h0a.77.77,0,0,0-.23-.4l-6.37-6.44a1.1,1.1,0,0,1-.2-.31A8.81,8.81,0,0,1,1012.1,320.86Z" transform="translate(0 -160.83)"/><path class="cls-25" d="M1017.13,317.8c-17.42,1.16-12.06,13.88-12.06,13.88,4,5.94,11.7,3.59,11.7,3.59,1.67,10.19,4,57.73,4,57.73,1.29,6.76,6.7,13,9.79,16.11a7.66,7.66,0,0,1,2.22,5.33c0,3.72.12,10.06.45,16.08,7.23,6.4,18.23.52,18.23.52l-.4-17.44s32.36-.43,32.47.8a141.38,141.38,0,0,1,.52,15.54,20,20,0,0,0,18.05.53l-.65-13.45c37.82,13.14,56.71-.4,56.71-.4-44.93,6.45-58.73-43.26-75.79-47.71a36,36,0,0,0-34.6,9.13c-9.5,5.26-13-2.59-13-2.59a58.47,58.47,0,0,1-4.3-20.73l-2.23-26.48C1026.66,319.19,1017.13,317.8,1017.13,317.8Z" transform="translate(0 -160.83)"/><ellipse class="cls-40" cx="1015.83" cy="327.14" rx="1.61" ry="2.84" transform="translate(-10.47 -126.32) rotate(-1.94)"/><path class="cls-40" d="M1030.2,407.1" transform="translate(0 -160.83)"/><path class="cls-40" d="M1029.25,407.13" transform="translate(0 -160.83)"/><path class="cls-38" d="M1034.18,407" transform="translate(0 -160.83)"/><path class="cls-38" d="M1062,415.13" transform="translate(0 -160.83)"/><path class="cls-38" d="M1063.5,410.15" transform="translate(0 -160.83)"/><path class="cls-38" d="M1080,410.54" transform="translate(0 -160.83)"/><path class="cls-38" d="M1081.77,414.46" transform="translate(0 -160.83)"/><path class="cls-38" d="M1068.22,414.92" transform="translate(0 -160.83)"/></g></svg>