<svg xmlns="http://www.w3.org/2000/svg" viewBox="0 0 1120.35 884.98"><defs><style>.cls-1{fill:#9ee900;}.cls-2{fill:#603813;}.cls-3{fill:#009245;}.cls-4{fill:#5b9000;}.cls-5{fill:#9e9000;}.cls-6{fill:#8cc63f;}.cls-7{fill:#dede6a;}.cls-8{fill:#e2a06f;}.cls-9{fill:#f3b980;}.cls-10{fill:#fff;}.cls-11{fill:#42210b;}.cls-12{fill:#302a2a;}.cls-13{fill:#4d4d4d;}.cls-14{fill:gray;}.cls-15{fill:#a9f0b6;}.cls-16{fill:#136771;}</style></defs><title>ariel_b</title><g id="Capa_6" data-name="Capa 6"><path class="cls-1" d="M241.13,333.14c19.27-103.3,95-61,95-61,55.06-52.5,82.59,25.4,82.59,25.4,59.19,25.4,28.91,89.76,28.91,89.76,34.41,64.35-13.77,98.22-13.77,98.22,17.9,101.61-72.95,79.59-72.95,79.59-68.83,61-78.46-37.25-78.46-37.25-74.34,6.77-49.56-74.52-49.56-74.52C183.32,372.1,241.13,333.14,241.13,333.14Z" transform="translate(-42.39 -140.83)"/><polygon class="cls-2" points="271.39 632.17 330.35 632.17 312.93 401.49 374.58 305.52 308.91 362.77 303.55 305.52 323.65 266.79 300.87 280.26 294.17 206.17 290.15 290.36 240.56 236.48 283.45 337.51 271.39 632.17"/><path class="cls-3" d="M925.84,552c2.41-20.36-23.69-13.64-23.69-13.64-18.37-24.85-31.42-7.33-22.84,9.37S923.44,572.39,925.84,552Z" transform="translate(-42.39 -140.83)"/></g><g id="Capa_2" data-name="Capa 2"><path class="cls-4" d="M540.26,231.51c50.61-79.54,95.81,2.71,95.81,2.71,57.84,16.27,37,75.92,37,75.92,30.73,60.56-19,87.67-19,87.67,12.66,37.06-22.59,39.77-22.59,39.77-32.54,66.88-73.21,8.14-73.21,8.14-69.6,6.32-55.14-67.79-55.14-67.79-43.38-52.43,8.14-85.87,8.14-85.87C482.41,234.22,540.26,231.51,540.26,231.51Z" transform="translate(-42.39 -140.83)"/><path class="cls-4" d="M786.66,227.23c48.81-69.48,92.74,3.21,92.74,3.21,52.48,9.62,33,49.17,33,49.17,41.5,47-4.88,65.21-4.88,65.21,18.31,47-36.61,55.58-36.61,55.58-51.25,39.55-84.2-8.55-84.2-8.55-62.24,5.34-39-48.1-39-48.1-40.28-47,9.76-64.14,9.76-64.14C734.18,233.64,786.66,227.23,786.66,227.23Z" transform="translate(-42.39 -140.83)"/><path class="cls-1" d="M645.36,321.05c13.41-63.79,66.09-37.65,66.09-37.65,38.31-32.41,57.46,15.69,57.46,15.69C810.1,314.77,789,354.51,789,354.51c23.94,39.73-9.58,60.64-9.58,60.64,12.45,62.74-50.76,49.15-50.76,49.15-47.89,37.64-54.59-23-54.59-23-51.72,4.18-34.48-46-34.48-46C605.14,345.09,645.36,321.05,645.36,321.05Z" transform="translate(-42.39 -140.83)"/><polygon class="cls-2" points="649.68 417.87 655.43 281.94 635.77 250.1 660.22 265.21 663.12 197.06 669.8 258.93 687.04 233.84 672.67 278.8 684.16 417.87 649.68 417.87"/><path class="cls-5" d="M334,274c-76.08,99.14,4.7,152.68,4.7,152.68C352,531,395.74,491,395.74,491c55.05,81.41,73.35-11.49,73.35-11.49,53.95,35.21,61-74.45,61-74.45,42.19-103.19-1.77-134.69-1.77-134.69,3.07-124.16-60.55-98.52-60.55-98.52-62.37-74.11-79.4,10.33-79.4,10.33C301.44,164.62,334,274,334,274Z" transform="translate(-42.39 -140.83)"/><polygon class="cls-2" points="525.89 435.04 565.66 435.04 553.91 311.22 595.48 259.7 551.2 290.43 547.58 259.7 561.14 238.91 545.77 246.14 541.25 206.37 538.54 251.56 505.1 222.64 534.02 276.87 525.89 435.04"/><path class="cls-4" d="M290.34,209.09c-87.83-133.15-166.25,4.54-166.25,4.54-100.37,27.23-64.3,127.09-64.3,127.09C6.47,442.1,92.73,487.49,92.73,487.49c-22,62,39.21,66.57,39.21,66.57,56.46,112,127,13.62,127,13.62,120.77,10.59,95.67-113.48,95.67-113.48,75.29-87.76-14.11-143.74-14.11-143.74C390.72,213.63,290.34,209.09,290.34,209.09Z" transform="translate(-42.39 -140.83)"/><polygon class="cls-2" points="188.35 644.73 119.34 644.73 139.73 437.44 67.59 351.2 144.44 402.64 150.71 351.2 127.19 316.4 153.85 328.5 161.69 261.93 166.4 337.58 224.43 289.17 174.24 379.95 188.35 644.73"/><polygon class="cls-2" points="778.9 421.49 813.1 421.49 795.93 250.66 824.85 211.79 795.03 230.77 785.09 165.7 778.9 421.49"/><polygon class="cls-2" points="368.28 475.71 375.39 293.21 351.06 250.46 381.32 270.75 384.91 179.25 393.17 262.32 414.51 228.63 396.73 289 410.95 475.71 368.28 475.71"/></g><g id="Capa_7" data-name="Capa 7"><path class="cls-6" d="M73.52,928c-21.82-12-30.7-34.34-20.46-53.7,26.48-50.09,143-86.7,331.14-129.46,56.89-12.92,5.47-87.63,9.89-114.39,2.78-18.68,32-37.89,51.44-46a71.39,71.39,0,0,1,7-2.47c105.28-31,327.15-36.51,607.21-37.32-5.79.91-1.38,0,0,0-38.27,7-76.54,11.64-116.28,18.62C874.33,573.79,677.89,599.72,668,629c-11.89,35,134.26,91.39,162.22,100.7,33.85,10.47,57,19.37,100.09,32.58,158.8,48.71,162.27,130.41,120.15,154.5C973.93,960.52,344,1076.16,73.52,928Z" transform="translate(-42.39 -140.83)"/><path class="cls-7" d="M142.82,952c-19.13-11.5-36-54.14-27-72.77C139,831,246.89,810.19,406.12,754.62c9.94-3.47,46.72-14.84,38.71-45.92-6.29-24.4-24.52-45.93-20.65-71.69,2.44-18,18.69-29,35.7-36.74a59.64,59.64,0,0,1,6.17-2.39c92.3-29.87,290.8-41.68,536.32-42.46-5.08.87-317.25,17.87-349.78,58.6-46.15,57.75,120,117.08,144.5,126,29.68,10.08,50,18.65,87.74,31.36C1024.06,818.3,1018,890.06,990.17,920.13,915.6,1000.59,380,1094.61,142.82,952Z" transform="translate(-42.39 -140.83)"/><path class="cls-5" d="M706.9,427.07c16.12-66.66,79.46-39.34,79.46-39.34,46.06-33.87,69.09,16.39,69.09,16.39C905,420.51,879.63,462,879.63,462c28.79,41.52-11.51,63.38-11.51,63.38,15,65.56-61,51.36-61,51.36-57.57,39.34-65.64-24-65.64-24C679.26,557.11,700,504.65,700,504.65,658.53,452.2,706.9,427.07,706.9,427.07Z" transform="translate(-42.39 -140.83)"/><path class="cls-1" d="M891.57,323.38c-96.36,136.51,5.78,210.12,5.78,210.12C914.14,677,969.47,622,969.47,622c69.55,112,92.8-15.88,92.8-15.88,68.21,48.4,77.23-102.51,77.23-102.51,53.49-142-2.09-185.36-2.09-185.36,4-170.87-76.5-135.52-76.5-135.52C982.09,80.76,960.46,197,960.46,197,850.53,172.91,891.57,323.38,891.57,323.38Z" transform="translate(-42.39 -140.83)"/><polygon class="cls-2" points="929.71 672.17 939.52 389.23 905.94 322.96 947.7 354.41 952.64 212.57 964.05 341.35 993.48 289.12 968.95 382.7 988.58 672.17 929.71 672.17"/><polygon class="cls-2" points="725.28 586.17 774.61 586.17 760.04 442.68 811.61 382.97 756.67 418.58 752.19 382.97 769.01 358.88 749.95 367.26 744.34 321.17 740.98 373.55 699.5 340.03 735.37 402.87 725.28 586.17"/></g><g id="Capa_3" data-name="Capa 3"><path class="cls-6" d="M80.67,852.85c24.39-98.3,50.41-38.44,50.41-38.44,10.57-132.3,56-82.12,56-82.12,49.26-54.27,67.17,7.84,67.17,7.84,41.36-42.24,45.26,19,45.26,19C332,779,213,807,213,807Z" transform="translate(-42.39 -140.83)"/><path class="cls-6" d="M411,617c-14-41,14-41,14-41,33-46,53-13,53-13,16-24,35-11,35-11,27-15,38,7,38,7l-13,13-44,4-53,18Z" transform="translate(-42.39 -140.83)"/><path class="cls-6" d="M592,560c16-35,34-23,34-23,35-16,42,8,42,8,16-25,25,0,25,0l5,10Z" transform="translate(-42.39 -140.83)"/><path class="cls-6" d="M720,694c30-35,42,11,42,11,19-25,36,0,36,0,31-20,52,17,52,17,25-43,29,11,29,11v19L768,727Z" transform="translate(-42.39 -140.83)"/><path class="cls-6" d="M930,780c22-57,43-7,43-7,24-34,33,7,33,7,61,12,30,56,30,56h-30Z" transform="translate(-42.39 -140.83)"/><g id="Capa_4" data-name="Capa 4"><path class="cls-8" d="M526.66,589.17h24.81c-1.35,6.77,0,16.69,0,16.69H526.66C528,598.19,526.66,589.17,526.66,589.17Z" transform="translate(-42.39 -140.83)"/><path class="cls-9" d="M519,553.53v15.34c-1.9,5,1.8,9.93,1.8,9.93,1.36,10.82,12.89,17.59,12.89,17.59a9.9,9.9,0,0,0,5.55,1.53,10.67,10.67,0,0,0,5.36-2c12.29-8,13.65-17.07,13.65-17.07,2.64-4.06,1.35-9.48,1.35-9.48-1-17.14-1.35-17.14-1.35-17.14l-5.13-5.41-17.54-1.36Z" transform="translate(-42.39 -140.83)"/><path class="cls-2" d="M536.21,539.1h-.87c-12.08.9-16,9.92-16,9.92-1.3,5-.86,14.44-.86,14.44.92,1.35.72.87,1.56.65,1.08-.28,1.42-1.34,1.66-2.48a7.36,7.36,0,0,1,2.48-4.13,34.77,34.77,0,0,0,5.78-5.78c9.92,18.18,23.46,18,23.46,18,3.45,6.32,6.91,3.16,6.91,3.16a31.61,31.61,0,0,0,3.94-13.76,18.46,18.46,0,0,0-2.26-8.12c-4.06-7.67-7.29-8.34-11.11-11-3.34-2.37-7.23-3.86-11.15-2.85C537.05,537.87,536.21,539.1,536.21,539.1Z" transform="translate(-42.39 -140.83)"/><path class="cls-10" d="M544.85,588c0,2-2.93,3.54-6.55,3.54s-6.56-1.58-6.56-3.54S544.85,586.09,544.85,588Z" transform="translate(-42.39 -140.83)"/><path class="cls-11" d="M529.77,563.43a21.5,21.5,0,0,1,4.73.42l1.43.3.54.12-.51.22c-.33.12-.82.29-1.42.45a21.89,21.89,0,0,1-4.7.65,38,38,0,0,1-4.65-.21l-.81-.06-.62,0h-.54s.14-.12.44-.33l.58-.33c.23-.11.49-.22.79-.34A15.37,15.37,0,0,1,529.77,563.43Z" transform="translate(-42.39 -140.83)"/><path class="cls-8" d="M535.54,576.09a13.63,13.63,0,0,0-.26,1.46,9.58,9.58,0,0,0-.09,1.4,4.66,4.66,0,0,0,.19,1.31,2.2,2.2,0,0,0,.63,1,1.47,1.47,0,0,0,.92.38,2.4,2.4,0,0,0,.7-.06l.41-.11.14,0h-.57a1.5,1.5,0,0,1-1.21-.53,2.89,2.89,0,0,1-.3-1.94c0-.4.12-.83.2-1.28s.18-.91.29-1.37c.22-.94.48-1.82.75-2.61s.55-1.53.72-2.18a6.36,6.36,0,0,0,.22-1.57c0-.18,0-.33,0-.42v-.15l0,.14c0,.1-.06.24-.1.41a8.73,8.73,0,0,1-.56,1.4c-.28.57-.67,1.23-1.06,2A13.47,13.47,0,0,0,535.54,576.09Z" transform="translate(-42.39 -140.83)"/><path class="cls-11" d="M550.13,572.58c0,1.14-1-.56-2.36-.52s-2.34,1.78-2.37.65a2.39,2.39,0,0,1,4.73-.13Z" transform="translate(-42.39 -140.83)"/><path class="cls-11" d="M531.53,572.51c0,1.14-1.06-.56-2.37-.52s-2.34,1.78-2.37.65a2.4,2.4,0,0,1,4.74-.13Z" transform="translate(-42.39 -140.83)"/><path class="cls-12" d="M517.69,898.84c1.66,9.58,5.12,22.81,5.12,22.81h0c-85.38,24.3,17.27,16.49,17.27,16.49l-6.64-39.3Z" transform="translate(-42.39 -140.83)"/><path class="cls-12" d="M590.76,914.73C515.82,962.31,612,925.62,612,925.62l-17.54-35.79" transform="translate(-42.39 -140.83)"/><path class="cls-9" d="M499,717h9.27a1.75,1.75,0,0,1,1.54.92c5.56,10.34,2.07,26.39,2,26.55-5.37,8.46-10.4,3.09-11.39,1.88a1.89,1.89,0,0,1-.28-.47,25.63,25.63,0,0,1-1-14.51c.37,3.39-1.4,5.12-1.92,6.43a1.75,1.75,0,0,1-3.36-.79,48.85,48.85,0,0,1,1.49-8.23l0-.12,2-10.24A1.75,1.75,0,0,1,499,717Z" transform="translate(-42.39 -140.83)"/><path class="cls-13" d="M537.44,924.46l-19.53-.17-14.26-86.78c-4.46-11.57,0-31.4,0-31.4l4.45-89.26,33-5,2.67,58.68-11.59,49.59Z" transform="translate(-42.39 -140.83)"/><path class="cls-14" d="M569.22,704.62c10.67,24,4.69,53.94,2.73,62.13a18.58,18.58,0,0,0-.51,4.69l.85,52L606,913.72l-18.59,4.79-39.23-81.82c-8-9.92-7.13-23.14-7.13-23.14l-11.75-72.43C527.56,732.86,521,717,521,717Z" transform="translate(-42.39 -140.83)"/><path class="cls-9" d="M576.86,719.49h9.26a1.73,1.73,0,0,1,1.54.92c5.57,10.34,2.08,26.39,2,26.55-5.37,8.46-10.4,3.09-11.39,1.87a1.83,1.83,0,0,1-.28-.46,25.63,25.63,0,0,1-1-14.51c.37,3.39-1.4,5.12-1.92,6.43a1.75,1.75,0,0,1-3.36-.79,48.85,48.85,0,0,1,1.49-8.23.5.5,0,0,0,0-.12l2-10.24A1.74,1.74,0,0,1,576.86,719.49Z" transform="translate(-42.39 -140.83)"/><path class="cls-15" d="M517,721.74H496.33c-2.07-75.06,7.24-102.35,7.24-102.35,20.69-33.27,30,0,30,0Z" transform="translate(-42.39 -140.83)"/><path class="cls-16" d="M505.93,723.28c31.31,11.94,68.14,1.71,68.14,1.71l-3.61-117.15-15.73-6.54c-17.49,8.53-31.31,1.71-31.31,1.71-12,3.41-14.73,11.09-14.73,11.09Z" transform="translate(-42.39 -140.83)"/><path class="cls-15" d="M574.07,725H591.9c1.79-75.07-6.24-102.36-6.24-102.36-17.83-33.27-25.85,0-25.85,0Z" transform="translate(-42.39 -140.83)"/><path class="cls-3" d="M260.88,765.25c-11.75-27.81-39.95-5.25-39.95-5.25-47-54-76,15-76,15-15.32-6.56-23.55-1.64-28,6-6.79,11.71-2.53,26.74,9,33.84,49.27,30.37,92.92,15.27,117.89.54C261.15,805.14,268.7,783.75,260.88,765.25Z" transform="translate(-42.39 -140.83)"/><path class="cls-3" d="M510.44,566c-5.95-12.89-20.23-2.43-20.23-2.43-23.81-25-38.49,6.95-38.49,6.95-7.76-3-11.93-.76-14.16,2.76-3.44,5.43-1.28,12.39,4.56,15.68,24.95,14.07,47.05,7.08,59.7.25C510.58,584.48,514.4,574.57,510.44,566Z" transform="translate(-42.39 -140.83)"/><path class="cls-3" d="M474.46,581.35c-5.87-9-20-1.69-20-1.69-23.49-17.41-38,4.83-38,4.83-7.65-2.11-11.77-.53-14,1.93-3.4,3.77-1.27,8.62,4.49,10.91a80.71,80.71,0,0,0,58.92.17C474.6,594.21,478.37,587.31,474.46,581.35Z" transform="translate(-42.39 -140.83)"/><path class="cls-3" d="M193.48,797C187.54,764.13,252,775,252,775c45.35-40.09,77.56-11.83,56.37,15.12S199.41,829.84,193.48,797Z" transform="translate(-42.39 -140.83)"/><path class="cls-3" d="M1008.8,783.92c5.93-32.86-58.49-22-58.49-22C905,721.82,872.74,750.07,893.94,777S1002.86,816.78,1008.8,783.92Z" transform="translate(-42.39 -140.83)"/><path class="cls-6" d="M413.44,609.16c-1.7-17.34,16.71-11.62,16.71-11.62,13-21.16,22.17-6.24,16.11,8S415.14,626.5,413.44,609.16Z" transform="translate(-42.39 -140.83)"/><path class="cls-3" d="M669.13,598.43c-2-23,20.09-15.43,20.09-15.43,15.58-28.1,26.64-8.29,19.36,10.6S671.17,621.47,669.13,598.43Z" transform="translate(-42.39 -140.83)"/><path class="cls-6" d="M714.67,586.67c.82-13.56-8.15-9.09-8.15-9.09-6.32-16.54-10.8-4.88-7.85,6.24S713.84,600.24,714.67,586.67Z" transform="translate(-42.39 -140.83)"/><path class="cls-6" d="M695.29,599c-.83-13.57,8.14-9.09,8.14-9.09,6.32-16.55,10.81-4.89,7.86,6.24S696.11,612.56,695.29,599Z" transform="translate(-42.39 -140.83)"/></g><path class="cls-6" d="M879.49,770.92c-1.7-17.34,16.71-11.62,16.71-11.62,13-21.16,22.17-6.24,16.11,8S881.19,788.26,879.49,770.92Z" transform="translate(-42.39 -140.83)"/></g></svg>